<?xml version="1.0" encoding="utf-8"?>
<!-- Generator: Adobe Illustrator 19.1.0, SVG Export Plug-In . SVG Version: 6.00 Build 0)  -->
<!DOCTYPE svg PUBLIC "-//W3C//DTD SVG 1.1//EN" "http://www.w3.org/Graphics/SVG/1.1/DTD/svg11.dtd">
<svg version="1.1" xmlns="http://www.w3.org/2000/svg" xmlns:xlink="http://www.w3.org/1999/xlink" x="0px" y="0px"
	 viewBox="0 0 700 700" style="enable-background:new 0 0 700 700;" xml:space="preserve">
<style type="text/css">
	.st0{display:none;}
	.st1{display:inline;fill:#C0E6FF;}
	.st2{display:inline;fill:#7CC7FF;}
	.st3{display:inline;fill:#5AAAFA;}
	.st4{display:inline;fill:#5596E6;}
	.st5{display:inline;fill:#4178BE;}
	.st6{display:inline;fill:#325C80;}
	.st7{display:inline;fill:#264A60;}
	.st8{display:inline;fill:#1D3649;}
	.st9{display:inline;fill:#152935;}
	.st10{fill:#325C80;}
	.st11{fill:#5596E6;}
	.st12{fill:#5AAAFA;}
	.st13{fill:#4178BE;}
</style>
<g id="colors" class="st0">
	<circle class="st1" cx="-276.5" cy="36.4" r="37.4"/>
	<circle class="st2" cx="-190" cy="36.4" r="37.4"/>
	<circle class="st3" cx="-102.9" cy="36.4" r="37.4"/>
	<circle class="st4" cx="-363.6" cy="123.5" r="37.4"/>
	<circle class="st5" cx="-276.5" cy="123.5" r="37.4"/>
	<circle class="st6" cx="-190" cy="123.5" r="37.4"/>
	<circle class="st7" cx="-102.9" cy="123.5" r="37.4"/>
	<circle class="st8" cx="-363.6" cy="205.6" r="37.4"/>
	<circle class="st9" cx="-276.5" cy="205.6" r="37.4"/>
</g>
<g id="Layer_1">
	<g id="XMLID_707_">
		<g id="XMLID_933_">
			<path id="XMLID_718_" class="st10" d="M364.4,314.6h-37.3c-57.1,0-103.6-46.5-103.6-103.6c0-36.3-29.5-65.9-65.9-65.9h-35.2
				c-10.4,0-18.9-8.4-18.9-18.9s8.4-18.9,18.9-18.9h35.2c57.1,0,103.6,46.5,103.6,103.6c0,36.3,29.5,65.9,65.9,65.9h37.3
				c10.4,0,18.9,8.4,18.9,18.9C383.3,306.2,374.8,314.6,364.4,314.6z"/>
			<path id="XMLID_719_" class="st10" d="M157.6,617.4h-35.2c-10.4,0-18.9-8.4-18.9-18.9c0-10.4,8.4-18.9,18.9-18.9h35.2
				c36.3,0,65.9-29.5,65.9-65.9c0-57.1,46.5-103.6,103.6-103.6h37.3c10.4,0,18.9,8.4,18.9,18.9c0,10.4-8.4,18.9-18.9,18.9h-37.3
				c-36.3,0-65.9,29.5-65.9,65.9C261.2,570.9,214.7,617.4,157.6,617.4z"/>
			<path id="XMLID_720_" class="st10" d="M364.4,381h-242c-10.4,0-18.9-8.4-18.9-18.9s8.4-18.9,18.9-18.9h242
				c10.4,0,18.9,8.4,18.9,18.9S374.8,381,364.4,381z"/>
		</g>
		<path id="XMLID_710_" class="st11" d="M687.9,349.1l-57.3-57.3c-7.4-7.4-19.3-7.4-26.7,0c-7.4,7.4-7.4,19.3,0,26.7l25.1,25.1h-189
			c-10.4,0-18.9,8.4-18.9,18.9s8.4,18.9,18.9,18.9h189L604,406.4c-7.4,7.4-7.4,19.3,0,26.7c3.7,3.7,8.5,5.5,13.3,5.5
			c4.8,0,9.7-1.8,13.3-5.5l57.3-57.3C695.3,368.4,695.3,356.5,687.9,349.1z"/>
		<path id="XMLID_721_" class="st12" d="M73.2,193.6c-36.8,0-66.7-29.9-66.7-66.7s29.9-66.7,66.7-66.7c36.8,0,66.7,29.9,66.7,66.7
			S109.9,193.6,73.2,193.6z M73.2,97.9c-16,0-29,13-29,29s13,29,29,29c16,0,29-13,29-29S89.1,97.9,73.2,97.9z"/>
		<path id="XMLID_724_" class="st12" d="M73.2,428.8c-36.8,0-66.7-29.9-66.7-66.7s29.9-66.7,66.7-66.7c36.8,0,66.7,29.9,66.7,66.7
			S109.9,428.8,73.2,428.8z M73.2,333.1c-16,0-29,13-29,29s13,29,29,29c16,0,29-13,29-29S89.1,333.1,73.2,333.1z"/>
		<path id="XMLID_728_" class="st12" d="M73.2,665.4c-36.8,0-66.7-29.9-66.7-66.7c0-36.8,29.9-66.7,66.7-66.7
			c36.8,0,66.7,29.9,66.7,66.7C139.8,635.5,109.9,665.4,73.2,665.4z M73.2,569.8c-16,0-29,13-29,29c0,16,13,29,29,29
			c16,0,29-13,29-29C102.1,582.8,89.1,569.8,73.2,569.8z"/>
		<path id="XMLID_737_" class="st13" d="M434.1,500.5h-60.9c-10.4,0-18.9-8.4-18.9-18.9V243.2c0-10.4,8.4-18.9,18.9-18.9h60.9
			c10.4,0,18.9,8.4,18.9,18.9v238.5C452.9,492.1,444.5,500.5,434.1,500.5z"/>
	</g>
</g>
</svg>
