<svg xmlns="http://www.w3.org/2000/svg" xmlns:xlink="http://www.w3.org/1999/xlink" version="1.1" x="0px" y="0px" viewBox="0 0 100 125" enable-background="new 0 0 100 100" xml:space="preserve"><g><path fill="#fff" stroke="#fff" d="M93.591,54.787l-11.64-5.386c-0.523-0.242-0.939-0.668-1.168-1.197l-2.629-6.079c-0.249-0.576-0.718-1.027-1.302-1.255   l-1.561-0.607c-0.812-0.316-1.382-1.055-1.48-1.921l-0.798-7.026c-0.062-0.544,0.069-1.093,0.369-1.551l3.276-4.992   c0.429-0.653,0.504-1.477,0.201-2.196L70.063,6.436c-0.587-1.395-2.323-1.876-3.544-0.983l-8.341,6.095   c-0.151,0.11-0.288,0.238-0.409,0.381l-5.356,6.348c-0.102,0.121-0.216,0.232-0.341,0.33l-6.09,4.799   c-0.438,0.345-0.739,0.835-0.848,1.382l-1.137,5.684c-0.221,1.103,0.373,2.208,1.416,2.632l3.533,1.437   c0.57,0.232,1.026,0.679,1.27,1.244l1.452,3.368c0.461,1.07,1.638,1.639,2.763,1.336l2.211-0.595   c0.81-0.218,1.442-0.853,1.657-1.664l1.508-5.697c0.028-0.106,0.049-0.214,0.062-0.323l0.935-7.856   c0.064-0.539,0.314-1.04,0.706-1.416l4.453-4.267l-1.722,10.16c-0.214,1.263,0.625,2.464,1.885,2.697   c1.635,0.303,2.444,2.164,1.55,3.567l-5.252,8.232c-0.423,0.663-1.149,1.069-1.935,1.083l-8.951,0.158   c-1.014,0.018-1.925-0.619-2.257-1.577l-0.287-0.831c-0.703-2.032-3.542-2.125-4.377-0.143l-0.558,1.325   c-0.278,0.66-0.843,1.157-1.533,1.349l-4.139,1.15c-0.303,0.084-0.586,0.228-0.832,0.424l-4.172,3.319   c-0.062,0.049-0.126,0.095-0.192,0.137l-5.259,3.381c-0.356,0.229-0.767,0.357-1.19,0.371l-2.646,0.088   c-1.534,0.051-2.606,1.538-2.17,3.01l0.501,1.691c0.204,0.69,0.081,1.435-0.335,2.021l-1.983,2.799   c-0.566,0.8-1.571,1.163-2.518,0.91l-5.797-1.546c-1.19-0.317-2.423,0.34-2.822,1.506L5.177,75.026   c-0.423,1.234,0.235,2.573,1.474,2.983c4.317,1.427,12.157,4.784,13.382,4.336c1.034-0.378,1.617-3.583,2.358-5.726   c0.229-0.662,0.738-1.175,1.394-1.419l10.371-3.858c0.262-0.097,0.538-0.147,0.817-0.147h4.627c0.676,0,1.319,0.292,1.765,0.801   l9.048,10.341c0.374,0.427,0.536,0.978,0.58,1.544c0.021,0.265-0.883,3.405-0.448,4.014c0.435,0.609,2.49-1.202,3.437-2.364   c0.711-0.873,1.015-1.997,0.43-2.958l-7.845-12.889h2.259c0.705,0,1.372,0.317,1.817,0.863L60.88,83.101   c0.154,0.189,0.278,0.4,0.366,0.627l1.047,2.676c0.414,1.059,1.762,3.336,2.877,3.113h1.212c1.504-0.301,1.246-3.683,0.578-5.063   l-0.449-0.927c-0.69-1.427,0.205-3.113,1.773-3.342l6.42-0.934c1.152-0.168,2.007-1.156,2.007-2.32v-3.998   c0-0.469,0.141-0.927,0.404-1.315l2.609-3.851c0.764-1.128,2.325-1.369,3.394-0.525l1.187,0.937   c0.533,0.421,1.222,0.59,1.889,0.464l5.191-0.982c0.942-0.178,1.68-0.911,1.865-1.852l1.658-8.441   C95.116,56.306,94.572,55.241,93.591,54.787z"/><path d="M16.238,41.753c0,0.58,0.395,1.634,0.949,1.897c0.553,0.263,3.926-0.264,4.427-0.632s1.594-2.79,1.594-2.79   c0.096-0.168,0.213-0.324,0.347-0.463c0,0,1.853-0.963,1.853-1.924c0-0.962-1.713-2.451-2.253-2.451   c-0.54,0-1.252,1.357-1.976,1.462c-0.725,0.105-2.016-0.843-2.53-0.356c-0.514,0.487,0.303,3.059,0,3.399   C18.346,40.235,16.238,41.173,16.238,41.753z"/><path d="M32.878,28.828c-0.408-0.698-2.643,0.189-3.32,0.237c-0.677,0.048-3.07,3.202-3.544,4.361   c-0.474,1.159,0.052,3.004,0.145,3.386c0.093,0.382,1.702,1.39,1.937,1.581c0.235,0.191-0.448,2.674-0.87,3.122   c-0.422,0.448-4.479,2.767-4.387,3.202c0.092,0.435,2.569,1.726,2.569,2.134c0,0.408-4.585,1.541-4.585,2.016   s9.038,0.632,9.723,0.395s2.378-2.978,2.332-3.676c-0.046-0.698-1.124-4.712-1.124-4.712c-0.015-0.178-0.05-0.354-0.104-0.524   c0,0-0.738-2.301-0.946-2.946c-0.207-0.645,2.22-3.926,2.174-4.506c-0.046-0.58-1.752-0.58-1.897-1.304   C30.836,30.87,33.287,29.526,32.878,28.828z"/><path d="M25.685,78.709c-0.491,0.165,0.474,0.949,0.83,1.107c0.356,0.158,1.66,0.316,1.858,0c0.198-0.316-0.198-0.672-0.593-1.107   C27.384,78.274,26.492,78.437,25.685,78.709z"/><path d="M38.848,75.981c-0.532,1.775,0.908,1.897,0.829,2.922c-0.077,0.992-1.225,1.189-1.7,1.387s-0.87,1.502-1.067,2.292   c-0.198,0.79,0.791,0.949,1.581,0.988c0.79,0.04,1.387-1.704,1.383-2.411c-0.003-0.663,0.709-4.263,0.83-4.82   C40.875,75.556,39.137,75.017,38.848,75.981z"/><path d="M49.598,90.803c0.277-0.632,0.251-2.051,0-2.846c-0.229-0.725-2.49-0.158-3.202-0.198c-0.711-0.04-2.411-0.174-2.767,0.711   c-0.28,0.697,1.186,0.791,1.62,0.949c0.435,0.158,1.383,1.621,2.609,1.897S49.321,91.436,49.598,90.803z"/><path d="M88.055,93.61c-0.672-0.119-1.613,0.183-2.292,0.632c-0.34,0.225,2.688,0.83,3.36,0.751c0.672-0.079,0.277-0.514,0-1.082   C88.846,93.342,88.727,93.728,88.055,93.61z"/><path d="M49.142,91.848c-0.236-0.017-0.491,0.462-0.318,0.867c0.174,0.405,0.924,0.202,1.069,0.202s0.404-0.433,0.376-0.578   S49.862,91.898,49.142,91.848z"/><path d="M73.234,92.967c-0.527-0.063-1.318-0.096-2.055,0s-2.18-2.264-3.689-2.203c-1.318,0.053,0.158,1.897,1.054,2.203   c0.896,0.306,2.055,0.59,2.951,0.616c0.896,0.027,1.95,0.5,2.951,0.289C75.447,93.662,73.761,93.03,73.234,92.967z"/><path d="M21.377,8.472c-0.116,0.246,0.996,0.863,1.462,1.383c0.619,0.69,0.705,1.301,1.186,1.541   c0.843,0.422,2.569,0.685,3.834,0.58c1.265-0.105,2.533-1.211,2.213-2.371c-0.356-1.291-4.441-1.973-5.059-2.398   c-0.632-0.435,0.079-1.028-0.514-1.818c-0.593-0.15-1.982-0.337-2.806,0.949c-0.106,0.165,1.375,1.625,1.225,1.976   C22.831,8.519,21.732,7.721,21.377,8.472z"/></g></svg>