<svg xmlns="http://www.w3.org/2000/svg" xmlns:xlink="http://www.w3.org/1999/xlink" version="1.1" x="0px" y="0px" viewBox="0 0 100 125" enable-background="new 0 0 100 100" xml:space="preserve"><g><path fill="#fff" stroke="#fff" d="M67.863,93.271l-3.801-2.664l-2.765-1.975c-0.129-0.092-0.278-0.152-0.435-0.173l-5.015-0.692   c-0.499-0.069-0.865-0.506-0.845-1.009l0.059-1.486c0.007-0.177,0.062-0.349,0.159-0.497c0,0,1.696-2.173,1.65-2.524   c-0.046-0.35-0.844-0.543-0.844-0.543c-0.375-0.241-0.865-0.198-1.193,0.103l-3.129,2.882c-0.212,0.195-0.499,0.287-0.785,0.251   l-3.402-0.425c-0.243-0.03-0.466-0.151-0.625-0.337l-3.129-3.681c-0.143-0.168-0.225-0.379-0.232-0.599l-0.185-5.182   c-0.009-0.257,0.083-0.507,0.257-0.697l1.869-2.039c0.122-0.133,0.279-0.23,0.453-0.28l6.227-1.779   c0.113-0.032,0.231-0.044,0.348-0.034l6.993,0.567c0.397,0.032,0.735,0.302,0.855,0.682l1.29,4.097   c0.169,0.536,0.752,0.82,1.278,0.623l0.791-0.297c0.449-0.169,0.711-0.638,0.616-1.109l-1.13-5.651   c-0.052-0.26,0.004-0.531,0.155-0.749l4.312-6.229c0.136-0.196,0.195-0.435,0.167-0.672l-0.147-1.246   c-0.014-0.122-0.006-0.246,0.026-0.365l0.829-3.133c0.049-0.185,0.151-0.351,0.293-0.479l2.46-2.205   c0.243-0.218,0.362-0.544,0.316-0.868l-0.175-1.227c-0.043-0.3,0.056-0.604,0.267-0.821l2.332-2.398   c0.49-0.504,1.336-0.343,1.606,0.306c0,0,0.202,1.181,0.487,1.168c0.284-0.013,1.606-3.889,1.606-3.889   c0.218-0.527-0.059-1.127-0.6-1.304l-4.814-1.575v-1.481l3.461-0.935c0.286-0.077,0.592-0.021,0.831,0.153l2.648,1.926   c0.286,0.208,0.662,0.246,0.984,0.098l0.899-0.412c0.573-0.262,0.752-0.989,0.368-1.488l-3.066-3.978   c-0.063-0.082-0.14-0.154-0.226-0.212l-5.754-3.904c-0.026-0.018-0.053-0.034-0.081-0.049l-6.816-3.718   c-0.082-0.045-0.169-0.077-0.26-0.097l-4.253-0.928c-0.681-0.148-1.294,0.441-1.173,1.127l0.355,2.012   c0.017,0.097,0.049,0.191,0.094,0.278l1.446,2.807c0.173,0.336,0.137,0.743-0.093,1.043l-0.68,0.89   c-0.199,0.26-0.255,0.602-0.149,0.912l1.038,3.033c0.105,0.307,0.051,0.645-0.143,0.905c0,0-0.264,0.908-0.641,0.855   c-0.377-0.053-2.369-3.948-2.369-3.948c-0.11-0.184-0.277-0.326-0.476-0.405l-7.259-2.904c-0.238-0.095-0.426-0.275-0.53-0.509   c-0.316-0.713-0.976-2.252-0.895-2.494c0.087-0.261,3.332-4.183,4.474-5.558c0.241-0.29,0.291-0.69,0.133-1.032l-0.748-1.62   c-0.16-0.347-0.507-0.569-0.889-0.569h-6.893c-0.2,0-0.395-0.061-0.559-0.175l-4.538-3.157c-0.05-0.035-0.104-0.065-0.16-0.09   l-5.259-2.348c-0.353-0.158-0.58-0.508-0.58-0.894v-0.912c0-0.293-0.131-0.57-0.357-0.756l-3.66-3.009   c-0.412-0.339-1.998-0.802-2.514-1.298L30.242,5l-5.791,3.173l-1.745,1.626l-0.119,1.269c-0.186,0.218,1.754,0.282,1.468,0.282   l0.793,1.384l-1.785,2.419l-1.625,0.886c-0.331,0-0.639,0.167-0.82,0.444l-2.164,3.314c-0.413,0.632,0.015,1.474,0.769,1.513   l3.837,0.198c0.367,0.019,0.692,0.241,0.842,0.576l1.541,3.424c0.077,0.171,0.103,0.36,0.076,0.545l-1.211,8.172   c-0.011,0.074-0.013,0.15-0.007,0.225l0.695,8.341c0.023,0.274-0.071,0.546-0.258,0.748l-2.271,2.445   c-0.121,0.13-0.204,0.291-0.241,0.465l-1.764,8.414c-0.054,0.257-0.002,0.524,0.143,0.743l2.457,3.698   c0.044,0.067,0.08,0.138,0.107,0.214l1.643,4.621c0.006,0.017,0.012,0.033,0.019,0.05l2.676,6.402   c0.164,0.393,0.564,0.635,0.988,0.598l1.069-0.093c0.394-0.034,0.77,0.172,0.953,0.523l3.394,6.506   c0.073,0.14,0.111,0.295,0.111,0.453v4.598c0,0.4,0.243,0.759,0.614,0.909l9.835,3.953c0.219,0.088,0.462,0.094,0.685,0.017   l1.847-0.639c0.343-0.119,0.723-0.038,0.988,0.209l0.984,0.919c0.112,0.105,0.248,0.182,0.396,0.225l3.663,1.06   c0.087,0.025,0.17,0.062,0.247,0.11l2.956,1.848c0.202,0.126,0.442,0.174,0.677,0.136l4.402-0.719   c0.266-0.043,0.538,0.025,0.753,0.189l4.403,3.367c0.379,0.29,0.465,0.344,0.815,0.019l-0.079-0.496   C67.661,93.862,68.593,92.996,67.863,93.271z"/><path d="M45.341,16.727l-2.156-1.617c-0.593-0.445-1.416-0.414-1.975,0.073l-1.104,0.963l0.582,1.322h1.322l-0.186,1.023   c-0.083,0.458,0.041,0.929,0.339,1.287l0.381,0.457c0.298,0.358,0.741,0.565,1.207,0.565h2.279h1.957V19.9   c0,0-0.952-1.745-0.952-1.904c0-0.106,0.423-0.893,0.705-1.406c0.16-0.291,0.224-0.624,0.182-0.953l-0.096-0.756   c-0.092-0.717-0.661-1.28-1.379-1.362l-2.003-0.23l0.921,1.4c0.254,0.387,0.325,0.866,0.194,1.31L45.341,16.727z"/><path d="M57.065,17.02l-1.996-0.281c-0.692-0.097-1.346,0.34-1.522,1.016l-0.189,0.726c-0.118,0.456,0.004,0.94,0.326,1.284   l0.652,0.698c0.203,0.218,0.33,0.496,0.362,0.792l0.317,2.969c0.037,0.347,0.205,0.667,0.469,0.895l2.286,1.972l-0.761-1.978   c-0.183-0.475-0.088-1.012,0.246-1.396c0.319-0.367,0.421-0.876,0.267-1.337l-0.704-2.111l1.048,0.327   c0.407,0.127,0.731,0.435,0.879,0.835l0.759,2.05c0.043,0.115,0.069,0.234,0.08,0.356c0.049,0.561,0.195,2.224,0.195,2.355   c0,0.138,2.466,0.394,3.121,0.46c0.108,0.011,0.21,0.034,0.313,0.07l2.402,0.841c0.39,0.136,0.821,0.09,1.173-0.125l1.083-0.664   l-3.279-3.596l2.327-0.053l-1.834-2.587c-0.149-0.21-0.355-0.375-0.593-0.474l-7.088-2.953   C57.294,17.067,57.181,17.036,57.065,17.02z"/><path d="M75.847,17.076l-1.526-2.834l-1.396-2.632c-0.091-0.171-0.215-0.322-0.364-0.445L70.19,9.226   c-0.136-0.111-0.283-0.194-0.449-0.25c-0.738-0.249-2.904-0.975-3.035-0.975c-0.109,0-1.734-0.994-2.745-1.62   c-0.487-0.301-1.105-0.288-1.58,0.034l-0.324,0.22c-0.34,0.23-0.761,0.306-1.16,0.209l-0.246-0.06   c-0.64-0.156-1.304,0.138-1.62,0.715l-0.819,1.498c-0.117,0.214-0.179,0.454-0.179,0.698v2.54c0,0.433,0.193,0.844,0.527,1.121   l0.603,0.499c0.261,0.216,0.589,0.334,0.927,0.334h2.935c0.391,0,0.763,0.155,1.037,0.435c0.557,0.569,1.476,1.502,1.586,1.575   c0.119,0.079,2.074,1.106,3.051,1.618c0.348,0.182,0.606,0.496,0.718,0.872c0.153,0.514,0.366,1.219,0.462,1.476   c0.159,0.423,1.375,2.856,1.534,2.856c0.139,0,2.558,1.303,3.149,1.622c0.087,0.047,0.168,0.102,0.243,0.166l1.807,1.52   c0.262,0.22,0.594,0.341,0.936,0.341h0c1.034,0,1.738-1.048,1.346-2.005l-0.103-0.253c-0.019-0.046-0.04-0.09-0.063-0.134   l-1.616-3.031c-0.027-0.051-0.053-0.094-0.086-0.141c-0.236-0.338-1.331-1.916-1.331-2.105c0-0.102,0.11-0.412,0.225-0.707   C76.076,17.896,76.05,17.452,75.847,17.076z"/><path d="M77.966,80.538c-0.387-0.208-0.837-0.272-1.269-0.194l-2.36,0.422c-0.116,0.021-0.233,0.031-0.35,0.031h-2.868   c-0.259,0-0.516-0.051-0.756-0.149l-1.958-0.805c-0.039-0.016-0.079-0.031-0.119-0.044l-1.659-0.561l-2.175-0.628   c-0.257-0.074-0.527-0.096-0.793-0.063l-1.771,0.217c-0.275,0.034-0.541,0.125-0.779,0.267l-2.204,1.318l2.168-0.238l1.19,0.264   l3.464,0.106l0.106,0.899l0.654,0.372c0.553,0.315,1.223,0.346,1.802,0.084l0.442-0.2c0.368-0.167,0.779-0.217,1.177-0.144   l1.548,0.283c0.199,0.036,0.402,0.042,0.603,0.017l3.621-0.45c0.081-0.01,0.163-0.015,0.245-0.015h2.55   c0.191,0,0.382-0.028,0.565-0.082l2.666-0.791v-0.635c0,0-3.207,0.899-3.392,0.873C78.247,80.682,78.112,80.617,77.966,80.538z"/></g></svg>