<svg xmlns="http://www.w3.org/2000/svg" xmlns:xlink="http://www.w3.org/1999/xlink" version="1.1" x="0px" y="0px" viewBox="0 0 100 125" enable-background="new 0 0 100 100" xml:space="preserve"><g><path fill="#fff" stroke="fff" d="M81.175,28.786l-1.428-0.454c-0.164-0.052-0.315-0.139-0.444-0.254l-3.07-2.763c-0.116-0.104-0.251-0.185-0.397-0.238   l-4.777-1.737c-0.031-0.011-0.061-0.024-0.091-0.037l-7.705-3.531c-0.321-0.147-0.562-0.427-0.66-0.766l-2.258-7.808   c-0.187-0.647-0.865-1.018-1.511-0.826l-2.918,0.868c-0.101,0.03-0.206,0.047-0.311,0.05l-3.29,0.094   c-0.357,0.01-0.701-0.138-0.939-0.405L46.43,5.438C46.172,5.149,45.791,5,45.405,5.039l-6.147,0.615   c-0.078,0.008-0.157,0.008-0.236,0.001L32.21,5.005c-0.192-0.018-0.386,0.01-0.566,0.081l-6.417,2.567   c-0.461,0.184-2.076,0.968-2.076,1.464l0.15,4.163c0,0.256-0.081,0.505-0.231,0.713l-3.6,6.12c-0.109,0.15-0.182,0.322-0.213,0.505   l-1.259,7.241c-0.044,0.255-0.006,0.518,0.11,0.75l5.643,11.285c0.092,0.185,0.23,0.342,0.4,0.459l8.233,5.628   c0.35,0.24,0.55,0.645,0.527,1.069l-0.417,7.515c-0.002,0.038-0.002,0.076-0.001,0.114l0.447,11.508   c0.006,0.161-0.02,0.322-0.076,0.473l-1.776,4.737c-0.128,0.341-0.096,0.72,0.087,1.035l1.607,2.768   c0.11,0.19,0.167,0.405,0.164,0.624l-0.109,8.646c-0.001,0.051,0.002,0.102,0.008,0.152l0.508,4.47   c0.036,0.319,0.198,0.611,0.449,0.812l6.063,4.831c0.497,0.396,1.216,0.341,1.647-0.126c0.363-0.393,0.425-0.977,0.154-1.438   L39.94,90.24c-0.074-0.126-0.125-0.264-0.15-0.407l-0.775-4.458c-0.066-0.377,0.051-0.763,0.313-1.041l2.891-3.061   c0.353-0.374,0.432-0.931,0.196-1.388l-0.481-0.934c-0.451-0.875,0.274-1.895,1.249-1.756l0.332,0.047   c0.73,0.104,1.383-0.463,1.383-1.201v-0.218c0-0.482,0.285-0.918,0.726-1.111l4.475-1.961c0.601-0.263,0.884-0.957,0.638-1.565   l-0.224-0.555c-0.281-0.697,0.132-1.479,0.867-1.639l3.985-0.868c0.259-0.056,0.493-0.196,0.665-0.398l5.544-6.503   c0.101-0.119,0.178-0.255,0.228-0.403l1.141-3.424c0.102-0.307,0.323-0.561,0.613-0.704l8.693-4.294   c0.24-0.119,0.434-0.313,0.552-0.553l3.521-7.179c0.054-0.11,0.091-0.227,0.11-0.348l0.604-3.893   c0.037-0.236,0.142-0.457,0.304-0.633l4.364-4.77c0.205-0.224,0.318-0.516,0.318-0.819v-4.26   C82.02,29.413,81.678,28.946,81.175,28.786z"/></g></svg>